<?xml version="1.0"?><svg width="640" height="480" xmlns="http://www.w3.org/2000/svg" xmlns:xlink="http://www.w3.org/1999/xlink">
 <title>Clean Fire</title>
 <metadata id="metadata3">FirefestivefireOpen Clip Art LibraryValessio Soares de BritoValessio Soares de Britoimage/svg+xmlen</metadata>
 <defs>
  <linearGradient id="linearGradient29186">
   <stop id="stop29187" offset="0" stop-color="#ffffff"/>
   <stop id="stop29188" offset="1" stop-opacity="0" stop-color="#ffffff"/>
  </linearGradient>
  <linearGradient id="linearGradient17250">
   <stop id="stop17251" offset="0" stop-color="#dc0000"/>
   <stop id="stop17252" offset="1" stop-color="#ffb200"/>
  </linearGradient>
  <linearGradient id="linearGradient26051">
   <stop id="stop26052" offset="0" stop-opacity="0.449275" stop-color="#ffffff"/>
   <stop id="stop26053" offset="1" stop-opacity="0" stop-color="#ffffff"/>
  </linearGradient>
  <linearGradient id="linearGradient14625">
   <stop id="stop14626" offset="0" stop-color="#ffffff"/>
   <stop id="stop14627" offset="1" stop-opacity="0" stop-color="#ffffff"/>
  </linearGradient>
  <linearGradient xlink:href="#linearGradient14625" id="linearGradient4463" x1="-0.483345" y1="-0.273425" x2="0.633327" y2="0.929692"/>
  <linearGradient xlink:href="#linearGradient26051" id="linearGradient4466" x1="0.07436" y1="0.512884" x2="0.886215" y2="0.512884"/>
  <linearGradient xlink:href="#linearGradient17250" id="linearGradient4470" x1="0.258365" y1="1.281236" x2="0.528066" y2="0.359371"/>
  <linearGradient xlink:href="#linearGradient26051" id="linearGradient4473" x1="0.068144" y1="0.513767" x2="0.872196" y2="0.513767"/>
  <linearGradient xlink:href="#linearGradient14625" id="linearGradient4476" x1="1.828895" y1="0.085924" x2="0.157897" y2="0.929667"/>
  <linearGradient xlink:href="#linearGradient17250" id="linearGradient4479" x1="0.219525" y1="0.86719" x2="0.792708" y2="0.125014"/>
  <linearGradient xlink:href="#linearGradient29186" id="linearGradient4498" x1="-0.564235" y1="0.021774" x2="0.690579" y2="0.990636"/>
  <linearGradient xlink:href="#linearGradient26051" id="linearGradient4501" x1="0.080882" y1="0.534703" x2="0.920822" y2="0.534703"/>
  <linearGradient xlink:href="#linearGradient14625" id="linearGradient4504" x1="-0.558001" y1="0.124996" x2="0.259041" y2="1.007815"/>
  <linearGradient xlink:href="#linearGradient17250" id="linearGradient4512" x1="0.70836" y1="0.90624" x2="0.500026" y2="0.460928"/>
  <linearGradient xlink:href="#linearGradient17250" id="linearGradient4515" x1="0.214298" y1="0.914058" x2="0.45239" y2="0.242186"/>
 </defs>
 <g>
  <title>Layer 1</title>
  <g id="svg_1"/>
  <g transform="rotate(0.0729713, 336.23, 239.633)" id="svg_2">
   <path d="m283.55896,132.349808c20.223969,-25.296837 15.029877,-35.709442 11.726715,-53.126495c-7.026459,-8.029182 0.166046,-19.404816 5.921906,-50.12043c-18.416077,27.994812 -42.182678,32.651276 -17.648621,103.246925z" id="path15995" stroke-opacity="0.503817" stroke-miterlimit="4" stroke-width="2.156311" stroke="yellow" fill-rule="evenodd" fill="#ffd700"/>
   <path d="m296.354492,23.712734c-11.77594,16.72797 -29.633667,32.163685 -28.697662,55.348339c-0.126862,19.277 6.86734,37.262016 12.095703,55.348351c10.676178,-13.238541 22.034882,-30.050201 17.283234,-48.704689c0.032562,-7.38076 -4.72699,-13.11097 -4.864136,-20.081963c2.601746,-16.454681 7.984924,-32.349293 10.112122,-48.952026c-1.97641,2.347328 -3.95282,4.694664 -5.92926,7.041988z" id="path28564" stroke-opacity="0.503817" stroke-miterlimit="4" stroke-width="2.156311" fill-rule="evenodd" fill="url(#linearGradient4466)"/>
   <path d="m200.349304,330.817383c24.47287,78.563934 63.192017,120.226532 132.593292,124.988617c76.34198,26.584381 147.205353,-27.77536 127.114716,-113.084259c-9.131805,18.252045 -14.976135,28.171722 -30.682098,33.329376c6.209229,-47.217468 -33.605469,-55.153412 -14.246307,-105.942017c13.515656,-31.346481 21.551117,-69.834335 -2.191132,-101.180801c-9.862457,35.711273 -21.91684,59.518219 -46.02475,85.706192c2.556824,-43.646347 23.743011,-78.961212 10.958801,-120.226501c1.826202,-27.775352 -40.18045,-26.981667 -40.54538,-111.894279c-26.664764,36.50444 -37.988495,64.676361 -33.970367,120.226616c-9.862488,44.837296 -33.970428,61.105576 -29.587372,109.513123c-3.652405,-26.981674 -6.209259,-50.392181 -1.095551,-70.230713c-2.922577,-24.601501 -5.84433,-45.630997 -28.490997,-63.089355c6.93988,30.551926 14.976105,76.5793 -8.766907,88.08638c-6.574951,14.680908 -39.449234,65.073105 -3.287476,144.034317c-10.592285,-6.74585 -21.185623,-8.729614 -31.778473,-20.236694l0,0z" id="path15991" stroke-opacity="0.503817" stroke-miterlimit="4" stroke-width="2.156311" stroke="yellow" fill-rule="evenodd" fill="url(#linearGradient4515)"/>
   <path d="m329.380585,39.608829c-18.964447,27.048397 -27.007385,61.590664 -24.589722,95.272152c1.80661,16.470581 -6.254608,31.804337 -11.993378,46.517624c-10.552826,21.932358 -20.098907,45.884735 -17.213318,71.225479c-0.832336,14.601593 -6.804199,-0.120331 -6.175354,-7.464539c-2.859924,-20.659195 -4.083069,-42.083054 -0.181946,-62.548508c-1.966309,-19.914932 -6.610291,-41.502747 -21.749252,-54.590866c4.495514,23.639145 10.33699,50.282166 -0.51387,72.867462c-3.893127,7.566467 -12.601471,9.635361 -14.4216,18.721252c-18.268738,34.764099 -19.645233,78.105499 -5.775345,114.909241c2.886444,8.382446 6.651474,16.384491 9.919556,24.599518c-10.179123,-6.313568 -21.349747,-10.598267 -31.187973,-17.519073c13.627777,43.346252 39.540619,85.989075 80.447052,102.858154c16.086548,7.439331 33.628998,8.82016 50.624786,11.756927c37.252197,12.632782 83.480652,4.332153 108.057983,-30.881775c14.440338,-20.372864 18.451843,-47.866699 13.536102,-72.697937c-6.504913,14.291077 -17.776672,25.873291 -32.33429,29.542023c3.349487,-18.347809 -1.750031,-36.708191 -10.476135,-52.401764c-9.420074,-16.745361 -11.634857,-37.913239 -4.117218,-56.005341c11.406219,-27.157776 20.027496,-60.021942 6.743713,-88.28685c-4.110901,-13.048157 -7.004822,-5.038422 -9.087524,4.203506c-8.685272,29.021698 -26.223328,53.7099 -46.071167,74.880524c1.374359,-29.607681 10.884003,-57.621201 14.925354,-86.726166c2.307617,-14.826996 -0.343323,-29.705505 -3.200867,-44.06395c-1.945251,-16.134262 -17.424866,-24.410683 -23.955963,-38.22699c-11.638885,-18.375832 -15.509979,-41.215088 -16.189514,-63.153854c-1.67337,2.404583 -3.346741,4.809166 -5.020111,7.213749z" id="path29198" stroke-opacity="0.503817" stroke-miterlimit="4" stroke-width="2.156311" fill-rule="evenodd" fill="url(#linearGradient4498)"/>
   <path d="m325.272339,443.90213c-58.078247,-66.6604 -67.940613,-113.084473 -29.587036,-157.127899c43.102051,-83.325378 32.509186,-135.701355 1.095795,-185.696571c29.587036,110.703697 -35.066132,182.125404 -55.886612,214.265205c-12.419235,-41.662598 -1.826355,-59.518097 15.341415,-110.703674c-33.605011,39.678772 -54.060242,87.690033 -41.640991,133.320618c22.646866,68.644257 75.976563,83.722198 110.677429,105.942322z" id="path15990" stroke-opacity="0.503817" stroke-miterlimit="4" stroke-width="2.156311" stroke="yellow" fill-rule="evenodd" fill="url(#linearGradient4512)"/>
   <path d="m395.755798,192.042038c-7.785278,-24.596786 -1.432129,-29.864349 5.387543,-40.610001c7.034943,-2.976349 4.878723,-13.353897 8.71756,-36.465073c5.812469,25.795654 21.416626,37.524536 -14.105103,77.075073z" id="path15994" stroke-opacity="0.503817" stroke-miterlimit="4" stroke-width="2.156311" stroke="yellow" fill-rule="evenodd" fill="#ffd700"/>
   <path d="m404.504333,110.921799c-2.367126,10.965271 -1.297028,23.049698 -5.692078,33.277695c-10.297729,8.5457 -14.788025,24.425095 -10.272522,37.901031c1.401947,11.294571 4.654053,13.243134 10.419098,2.929352c12.309967,-13.760056 23.827789,-33.475357 16.818481,-53.191757c-3.162567,-10.056412 -5.931915,-20.265869 -9.454651,-30.191154c-0.606079,3.091621 -1.212189,6.183212 -1.818329,9.274834z" id="path28563" stroke-opacity="0.503817" stroke-miterlimit="4" stroke-width="2.156311" fill-rule="evenodd" fill="url(#linearGradient4501)"/>
   <path d="m445.812042,342.721313c20.089935,-21.029785 16.07196,-30.155945 14.245605,-45.233795c-5.84433,-7.14212 1.46109,-16.6651 8.76651,-42.853088c-18.628876,23.410492 -40.545166,26.584808 -23.012115,88.086884z" id="path15993" stroke-opacity="0.503817" stroke-miterlimit="4" stroke-width="2.156311" stroke="yellow" fill-rule="evenodd" fill="#ffd700"/>
   <path d="m351.571899,443.90213c22.64682,-13.887604 28.856445,-57.534241 31.778625,-105.942322c5.479095,-46.820923 16.437256,-93.641846 88.761139,-101.180817c-29.587067,25.79126 -53.695038,57.53421 -42.736847,116.655609c-2.92218,86.102875 -61.730988,82.928558 -77.802917,90.467529z" id="path15992" stroke-opacity="0.503817" stroke-miterlimit="4" stroke-width="2.156311" stroke="yellow" fill-rule="evenodd" fill="url(#linearGradient4479)"/>
   <path d="m463.777954,229.939087c-30.840057,4.749954 -62.628693,24.876556 -71.680298,59.060944c-14.525787,42.72879 -6.499115,91.360809 -26.31073,132.404022c-7.523834,3.55191 -5.684479,18.789124 3.607269,15.807861c27.2164,-5.360413 53.047394,-25.899414 59.942719,-56.042023c6.650391,-20.931824 2.879364,-43.07608 2.171906,-64.576508c0.904938,-31.181824 17.525482,-59.300842 39.344727,-78.538727c3.819489,-5.975723 -2.550781,-7.985855 -7.075592,-8.11557z" id="path26056" stroke-opacity="0.503817" stroke-miterlimit="4" stroke-width="2.156311" fill-rule="evenodd" fill="url(#linearGradient4476)"/>
   <path d="m464.152802,246.264679c-12.427734,14.290253 -30.457153,27.663849 -30.022186,49.635406c-0.918579,15.741791 4.241882,30.750641 7.451416,45.86087c10.788025,-11.182678 23.050568,-25.749634 19.098877,-43.384949c-0.028137,-7.770813 -5.419617,-14.568359 -1.186951,-22.139771c4.065277,-11.98938 8.317871,-23.919556 11.14151,-36.369354c-2.160889,2.132629 -4.321777,4.265289 -6.482666,6.397797z" id="path28562" stroke-opacity="0.503817" stroke-miterlimit="4" stroke-width="2.156311" fill-rule="evenodd" fill="url(#linearGradient4473)"/>
   <path d="m312.122528,411.76236c-2.92218,-38.091614 -6.940186,-65.470032 37.257751,-99.99054c74.880707,-56.74057 37.988251,-89.673981 -8.766541,-148.795319c13.880341,58.724487 -8.401245,105.545441 -27.395416,136.891693c-12.41925,19.442657 -55.521301,59.121399 -1.095795,111.894165z" id="path15989" stroke-opacity="0.503817" stroke-miterlimit="4" stroke-width="2.156311" stroke="yellow" fill-rule="evenodd" fill="url(#linearGradient4470)"/>
   <path d="m339.486908,153.134064c8.101868,40.033356 -0.242401,82.207092 -18.892242,117.377625c-11.578522,24.179504 -34.406708,42.697571 -36.58197,71.465576c-3.489258,25.068817 13.139008,45.963837 28.547729,62.163239c6.276306,8.572723 0.896667,-11.693817 1.750946,-16.437988c-2.504211,-24.662354 1.389771,-52.334412 19.710449,-69.251678c20.396851,-21.555237 49.487823,-36.497314 59.257874,-67.478485c6.608337,-27.361282 -11.000519,-51.886566 -26.35907,-71.315521c-9.262543,-12.208878 -19.028076,-23.91687 -28.738159,-35.7117c0.434784,3.062973 0.869629,6.125946 1.304443,9.188934z" id="path26055" stroke-opacity="0.503817" stroke-miterlimit="4" stroke-width="2.156311" fill-rule="evenodd" fill="url(#linearGradient4463)"/>
   <path d="m302.680115,117.615814c0.801819,18.93129 5.756714,37.677994 3.487793,56.787048c-2.001465,44.611038 -20.046143,86.563171 -44.957397,121.485168c-4.621277,7.132935 -9.543091,14.028046 -14.305038,21.050507c-6.367767,-23.0466 -3.493088,-47.896667 5.083221,-69.766815c4.516373,-11.685867 7.686234,-23.814835 9.344681,-36.378342c-23.806808,23.591583 -40.608139,55.750198 -46.525009,90.17186c-4.796066,31.835876 5.513931,64.566742 24.957306,88.492737c24.44725,31.3302 59.598343,48.934662 93.667587,64.670471c-19.305237,-29.497986 -46.179718,-56.114807 -51.887054,-93.38324c-3.914825,-21.64035 3.929749,-43.360382 17.012756,-59.54007c14.975769,-22.35022 24.30304,-48.937073 29.843903,-75.773453c7.195984,-34.950638 1.427521,-72.741653 -16.15683,-103.049637c-4.339111,-3.445709 -12.092499,-21.551224 -9.565918,-4.766235z" id="path26054" stroke-opacity="0.503817" stroke-miterlimit="4" stroke-width="2.156311" fill-rule="evenodd" fill="url(#linearGradient4504)"/>
  </g>
 </g>
</svg>